<?xml version="1.0" encoding="utf-8"?>
<!-- Generator: Adobe Illustrator 23.0.1, SVG Export Plug-In . SVG Version: 6.00 Build 0)  -->
<svg version="1.1" id="Layer_1" xmlns="http://www.w3.org/2000/svg" xmlns:xlink="http://www.w3.org/1999/xlink" x="0px" y="0px"
	 width="98px" height="98px" viewBox="0 0 98 98" style="enable-background:new 0 0 98 98;" xml:space="preserve">
<g id="BIM">
	<path style="fill:#DB181A;" d="M0.9,86.8h14.2V46.4c0,0,0.1-4.8,4.1-6.7l27.9-12.9V11.2l-41.3,19c-1.4,0.7-2.4,1.5-3.2,2.4
		c-0.4,0.5-0.8,1.1-1,1.7c-0.6,1.2-0.8,2.4-0.8,3.3c-0.1,0.8,0,1.3,0,1.3v47.9H0.9z"/>
	<polygon style="fill:#DB181A;" points="63.8,32.8 63.8,17.2 50.8,11.2 50.7,11.2 50.7,86.8 63.8,86.8 	"/>
	<polygon style="fill:#DB181A;" points="80.5,40.9 80.5,24.9 67.4,18.9 67.4,34.5 67.4,86.8 80.5,86.8 	"/>
	<path style="fill:#DB181A;" d="M97.1,38.9c0,0,0.1-0.5,0-1.3c-0.1-0.9-0.3-2.1-0.8-3.3c-0.3-0.6-0.6-1.1-1-1.7
		c-0.7-0.9-1.8-1.8-3.2-2.4l0,0L84,26.5v60.2h13.1V38.9z"/>
</g>
</svg>
