<?xml version="1.0" encoding="utf-8"?>
<!-- Generator: Adobe Illustrator 23.0.1, SVG Export Plug-In . SVG Version: 6.00 Build 0)  -->
<svg version="1.1" id="Layer_1" xmlns="http://www.w3.org/2000/svg" xmlns:xlink="http://www.w3.org/1999/xlink" x="0px" y="0px"
	 width="9px" height="13px" viewBox="0 0 9 13" style="enable-background:new 0 0 9 13;" xml:space="preserve">
<style type="text/css">
	.st0{fill-rule:evenodd;clip-rule:evenodd;fill:#19255B;}
</style>
<path id="_" class="st0" d="M8.5,7.9L8.5,7.9C8.2,7.5,7.7,7.5,7.3,7.8c0,0,0,0-0.1,0.1l-2,2V1.2c0-0.2-0.1-0.4-0.2-0.6
	C4.8,0.3,4.3,0.3,4,0.6c0,0,0,0,0,0C3.8,0.8,3.7,1,3.7,1.2v8.6l-2-2C1.5,7.7,1.3,7.6,1,7.6c-0.2,0-0.4,0.1-0.6,0.3
	C0.3,8.1,0.3,8.3,0.3,8.5c0,0.2,0.1,0.4,0.2,0.5l3.4,3.4c0.2,0.2,0.4,0.2,0.6,0.2c0.2,0,0.4-0.1,0.6-0.2L8.4,9
	c0.2-0.1,0.2-0.3,0.3-0.6C8.7,8.3,8.6,8,8.5,7.9z"/>
</svg>
