<?xml version="1.0" encoding="utf-8"?>
<!-- Generator: Adobe Illustrator 23.0.1, SVG Export Plug-In . SVG Version: 6.00 Build 0)  -->
<svg version="1.1" id="Layer_1" xmlns="http://www.w3.org/2000/svg" xmlns:xlink="http://www.w3.org/1999/xlink" x="0px" y="0px"
	 width="18px" height="17px" viewBox="0 0 18 17" style="enable-background:new 0 0 18 17;" xml:space="preserve">
<style type="text/css">
	.st0{fill-rule:evenodd;clip-rule:evenodd;fill:#151514;}
</style>
<path id="in" class="st0" d="M4.3,16.7V5.6H0.6v11.1H4.3z M2.5,4.1c1.1-0.1,1.9-1,1.8-2s-1-1.9-2-1.8c-1,0.1-1.8,0.9-1.8,1.9
	c0,1,0.8,1.9,1.9,1.9C2.4,4.1,2.4,4.1,2.5,4.1L2.5,4.1z M6.4,16.7H10v-6.2c0-0.3,0-0.6,0.1-0.9c0.3-0.8,1-1.3,1.9-1.3
	c1.3,0,1.9,1,1.9,2.5v5.9h3.7v-6.3c0-3.4-1.8-5-4.2-5C12,5.3,10.7,6.1,10,7.2h0V5.6H6.4C6.4,6.7,6.4,16.7,6.4,16.7L6.4,16.7
	L6.4,16.7z"/>
</svg>
