<?xml version="1.0" encoding="utf-8"?>
<!-- Generator: Adobe Illustrator 23.0.1, SVG Export Plug-In . SVG Version: 6.00 Build 0)  -->
<svg version="1.1" id="LOGO" xmlns="http://www.w3.org/2000/svg" xmlns:xlink="http://www.w3.org/1999/xlink" x="0px" y="0px"
	 width="355px" height="60px" viewBox="0 0 355 60" style="enable-background:new 0 0 355 60;" xml:space="preserve">
<g id="FLAG">
	<rect x="316.2" y="48.6" style="fill:#008D39;" width="12.1" height="8.5"/>
	<rect x="328.3" y="48.6" style="fill:#FFFFFF;" width="12.1" height="8.5"/>
	<rect x="340.4" y="48.6" style="fill:#DC1417;" width="12.1" height="8.5"/>
</g>
<g id="PAYOFF">
	<path style="fill:#19255B;" d="M94.4,54.5c0.3,0.5,0.7,0.9,1.2,1.2c0.5,0.3,1,0.4,1.6,0.4c0.6,0,1.1-0.1,1.6-0.4
		c0.5-0.3,0.9-0.7,1.1-1.2c0.3-0.5,0.4-1,0.4-1.6s-0.1-1.1-0.4-1.6c-0.3-0.5-0.7-0.9-1.2-1.2c-0.5-0.3-1-0.4-1.6-0.4
		c-0.6,0-1.1,0.1-1.6,0.4c-0.5,0.3-0.9,0.7-1.2,1.2c-0.3,0.5-0.4,1.1-0.4,1.6C94,53.4,94.1,54,94.4,54.5 M93.4,50.7
		c0.4-0.7,0.9-1.2,1.6-1.6c0.7-0.4,1.4-0.6,2.2-0.6c0.8,0,1.5,0.2,2.2,0.6c0.7,0.4,1.2,0.9,1.6,1.6c0.4,0.7,0.6,1.4,0.6,2.2
		c0,0.8-0.2,1.5-0.6,2.2c-0.4,0.7-0.9,1.2-1.6,1.6c-0.7,0.4-1.4,0.6-2.2,0.6c-0.8,0-1.5-0.2-2.2-0.6c-0.7-0.4-1.2-0.9-1.6-1.6
		c-0.4-0.7-0.6-1.4-0.6-2.2C92.8,52.1,93,51.3,93.4,50.7"/>
	<path style="fill:#19255B;" d="M108.3,52.4c0.3-0.3,0.4-0.7,0.4-1.1c0-0.3-0.1-0.5-0.2-0.7c-0.1-0.2-0.3-0.4-0.5-0.6
		c-0.2-0.2-0.6-0.2-0.9-0.2h-1.3v3.2h1.2C107.6,52.8,108.1,52.7,108.3,52.4 M109.3,57.1l-2-3.2c-0.1,0-0.2,0-0.3,0h-1.3v3.1h-1.1
		v-8.5h2.3c0.6,0,1.1,0.1,1.6,0.3c0.5,0.2,0.8,0.5,1.1,0.9c0.3,0.4,0.4,0.9,0.4,1.4c0,0.5-0.1,1-0.3,1.5c-0.2,0.4-0.6,0.8-1.1,1
		l2.2,3.4H109.3z"/>
	<rect x="113.4" y="48.6" style="fill:#19255B;" width="1.1" height="8.5"/>
	<path style="fill:#19255B;" d="M123.7,56.9c-0.6,0.2-1.1,0.3-1.5,0.3c-0.9,0-1.7-0.2-2.4-0.5c-0.7-0.4-1.2-0.9-1.6-1.5
		c-0.4-0.6-0.6-1.4-0.6-2.2c0-0.9,0.2-1.7,0.6-2.4c0.4-0.7,0.9-1.2,1.6-1.6c0.7-0.4,1.4-0.5,2.2-0.5c0.5,0,0.9,0.1,1.4,0.2
		c0.4,0.1,0.8,0.3,1.1,0.5l-0.4,1.1c-0.3-0.1-0.6-0.3-1-0.4c-0.4-0.1-0.7-0.2-1-0.2c-0.7,0-1.2,0.1-1.8,0.4
		c-0.5,0.3-0.9,0.6-1.2,1.1c-0.3,0.5-0.4,1.1-0.4,1.7c0,0.6,0.1,1.2,0.4,1.6c0.3,0.5,0.7,0.9,1.2,1.1c0.5,0.3,1.1,0.4,1.7,0.4
		c0.3,0,0.6,0,0.9-0.1c0.3-0.1,0.5-0.1,0.7-0.3V54h-1.7v-1.1h2.9v3.5C124.7,56.6,124.3,56.8,123.7,56.9"/>
	<rect x="128.3" y="48.6" style="fill:#19255B;" width="1.1" height="8.5"/>
	<polygon style="fill:#19255B;" points="140.5,48.6 140.5,57.4 140.5,57.4 134.2,51 134.2,57.1 133.1,57.1 133.1,48.3 133.1,48.3 
		139.4,54.7 139.4,48.6 	"/>
	<path style="fill:#19255B;" d="M148.1,53.9l-1.2-3.1l-1.3,3.1H148.1z M148.5,54.9h-3.3l-0.9,2.2h-1.1l3.7-8.9h0.1l3.7,8.9h-1.3
		L148.5,54.9z"/>
	<polygon style="fill:#19255B;" points="154.5,48.6 154.5,56 158.9,56 158.9,57.1 153.4,57.1 153.4,48.6 	"/>
	<rect x="166.8" y="48.6" style="fill:#19255B;" width="1.1" height="8.5"/>
	<polygon style="fill:#19255B;" points="176.4,48.6 176.4,49.7 174.1,49.7 174.1,57.1 172.9,57.1 172.9,49.7 170.7,49.7 170.7,48.6 
			"/>
	<path style="fill:#19255B;" d="M182.5,53.9l-1.2-3.1l-1.3,3.1H182.5z M182.9,54.9h-3.3l-0.9,2.2h-1.1l3.7-8.9h0.1l3.7,8.9h-1.3
		L182.9,54.9z"/>
	<polygon style="fill:#19255B;" points="188.9,48.6 188.9,56 193.2,56 193.2,57.1 187.7,57.1 187.7,48.6 	"/>
	<rect x="196" y="48.6" style="fill:#19255B;" width="1.1" height="8.5"/>
	<path style="fill:#19255B;" d="M204.8,53.9l-1.2-3.1l-1.3,3.1H204.8z M205.1,54.9h-3.3l-0.9,2.2h-1.1l3.7-8.9h0.1l3.7,8.9H206
		L205.1,54.9z"/>
	<polygon style="fill:#19255B;" points="217.4,48.6 217.4,57.4 217.4,57.4 211.1,51 211.2,57.1 210,57.1 210,48.3 210.1,48.3 
		216.3,54.7 216.3,48.6 	"/>
	<polygon style="fill:#19255B;" points="231.1,48.6 231.1,49.7 228.8,49.7 228.8,57.1 227.6,57.1 227.6,49.7 225.4,49.7 225.4,48.6 
			"/>
	<path style="fill:#19255B;" d="M237.5,52.4c0.3-0.3,0.4-0.7,0.4-1.1c0-0.3-0.1-0.5-0.2-0.7c-0.1-0.2-0.3-0.4-0.5-0.6
		c-0.2-0.2-0.6-0.2-0.9-0.2H235v3.2h1.2C236.8,52.8,237.3,52.7,237.5,52.4 M238.5,57.1l-2-3.2c-0.1,0-0.2,0-0.3,0H235v3.1h-1.1v-8.5
		h2.3c0.6,0,1.1,0.1,1.6,0.3c0.5,0.2,0.8,0.5,1.1,0.9c0.3,0.4,0.4,0.9,0.4,1.4c0,0.5-0.1,1-0.3,1.5c-0.2,0.4-0.6,0.8-1.1,1l2.2,3.4
		H238.5z"/>
	<path style="fill:#19255B;" d="M247.1,53.9l-1.2-3.1l-1.3,3.1H247.1z M247.5,54.9h-3.3l-0.9,2.2h-1.1l3.7-8.9h0.1l3.7,8.9h-1.3
		L247.5,54.9z"/>
	<path style="fill:#19255B;" d="M254.9,56c0.6,0,1.2-0.1,1.7-0.4c0.5-0.2,0.9-0.6,1.2-1.1c0.3-0.5,0.4-1,0.4-1.7
		c0-0.7-0.1-1.2-0.4-1.7c-0.3-0.5-0.7-0.8-1.2-1.1c-0.5-0.2-1-0.4-1.6-0.4h-1.5V56H254.9z M252.3,48.6h2.3c1.1,0,1.9,0.2,2.6,0.6
		c0.7,0.4,1.2,1,1.5,1.6c0.3,0.7,0.5,1.4,0.5,2.1c0,0.8-0.2,1.6-0.6,2.2c-0.4,0.6-0.9,1.1-1.5,1.5c-0.6,0.3-1.3,0.5-2.1,0.5h-2.8
		V48.6z"/>
	<polygon style="fill:#19255B;" points="268,48.6 268,49.7 263.6,49.7 263.6,52.3 267.5,52.3 267.5,53.4 263.6,53.4 263.6,56 
		268.1,56 268.1,57.1 262.4,57.1 262.4,48.6 	"/>
	<polygon style="fill:#19255B;" points="279.6,48.3 279.6,57.1 278.5,57.1 278.5,51.6 275.4,56 275.3,56 272.2,51.7 272.2,57.1 
		271.1,57.1 271.1,48.3 271.1,48.3 275.4,54.2 279.6,48.3 	"/>
	<path style="fill:#19255B;" d="M287.2,53.9l-1.2-3.1l-1.3,3.1H287.2z M287.6,54.9h-3.3l-0.9,2.2h-1.1l3.7-8.9h0.1l3.7,8.9h-1.3
		L287.6,54.9z"/>
	<path style="fill:#19255B;" d="M296.2,52.4c0.3-0.3,0.4-0.7,0.4-1.1c0-0.3-0.1-0.5-0.2-0.7c-0.1-0.2-0.3-0.4-0.5-0.6
		c-0.2-0.2-0.6-0.2-0.9-0.2h-1.3v3.2h1.2C295.5,52.8,295.9,52.7,296.2,52.4 M297.2,57.1l-2-3.2c-0.1,0-0.2,0-0.3,0h-1.3v3.1h-1.1
		v-8.5h2.3c0.6,0,1.1,0.1,1.6,0.3c0.5,0.2,0.8,0.5,1.1,0.9c0.3,0.4,0.4,0.9,0.4,1.4c0,0.5-0.1,1-0.3,1.5c-0.2,0.4-0.6,0.8-1.1,1
		l2.2,3.4H297.2z"/>
	<polygon style="fill:#19255B;" points="302.4,52.4 302.6,52.2 306.1,48.6 307.6,48.6 304,52.2 307.8,57.1 306.3,57.1 303.2,53 
		302.5,53.6 302.5,57.1 301.3,57.1 301.3,48.6 302.5,48.6 302.5,52 	"/>
</g>
<g id="BAFFO">
	<path style="fill:#DC1417;" d="M43.5,57.1c-2,0-3.9-0.3-5.7-1.3c-2.5-1.3-4-3.4-4.7-6.1c-0.2-0.9-0.3-1.7-0.3-2.7
		c0-6.5,0-12.9,0-19.4c0-0.7,0-1.4-0.2-2c-0.6-1.9-1.9-3-3.8-3.5c-0.5-0.1-1.1-0.2-1.7-0.2c-7.9,0-15.9,0-23.8,0H2.8c0,0,0,0-0.1,0
		c0,0,0,0,0,0c0-6.3,0-12.6,0-19c0-0.1,0-0.2,0-0.3c0.1,0,0.2,0,0.4,0c8.9,0,17.8,0,26.7,0c3.4,0,6.5,1.3,9,3.7
		c1.6,1.6,2.6,3.5,3.2,5.7c0.4,1.6,0.6,3.2,0.6,4.8c0,9.9,0,19.7,0,29.6c0,0.1,0,0.1,0,0.2c-0.1,0.6,0.2,1,1,1.1
		C43.5,50.8,43.5,54,43.5,57.1"/>
	<path style="fill:#19255B;" d="M43.5,57.1c0-3.1,0-6.3,0-9.4c0.1,0,0.3,0,0.4-0.1c0.3-0.1,0.5-0.4,0.5-0.7c0-0.1,0-0.3,0-0.4
		c0-9.9,0-19.9,0-29.8c0-2.3,0.4-4.6,1.4-6.7c1.3-3,3.6-5.1,6.6-6.3c1.4-0.6,2.9-0.9,4.4-1c0.3,0,0.7,0,1,0c8.6,0,17.2,0,25.9,0h0.5
		V22h-0.5c-7.8,0-15.7,0-23.5,0c-1.5,0-2.9,0.4-4.1,1.4c-1,0.8-1.6,1.9-1.7,3.1c-0.1,0.5-0.1,1-0.1,1.5c0,6.4,0,12.8,0,19.2
		c0,1.4-0.3,2.7-0.8,3.9c-1.4,3.2-3.9,5.1-7.3,5.7C45.3,57,44.4,57.1,43.5,57.1"/>
</g>
<g id="TIEMME">
	<path style="fill:#19255B;" d="M107.3,9.6H94.1c-0.8,0-1.2-0.4-1.2-1.1V3.7c0-0.7,0.4-1.1,1.2-1.1h35.1c0.8,0,1.2,0.4,1.2,1.1v4.8
		c0,0.7-0.4,1.1-1.2,1.1H116v29.3c0,0.7-0.5,1.1-1.2,1.1h-6.3c-0.7,0-1.2-0.4-1.2-1.1V9.6z"/>
	<path style="fill:#19255B;" d="M147.5,38.9c0,0.7-0.5,1.1-1.2,1.1H140c-0.8,0-1.2-0.4-1.2-1.1V3.7c0-0.7,0.4-1.1,1.2-1.1h6.3
		c0.7,0,1.2,0.4,1.2,1.1V38.9z"/>
	<path style="fill:#19255B;" d="M191.1,2.6c0.7,0,1.2,0.4,1.2,1.1v4.8c0,0.7-0.4,1.1-1.2,1.1h-26.5v8.1h22.3c0.7,0,1.2,0.4,1.2,1.1
		v4.6c0,0.7-0.5,1.1-1.2,1.1h-22.3V33h26.5c0.7,0,1.2,0.4,1.2,1.1v4.8c0,0.7-0.4,1.1-1.2,1.1h-34c-0.8,0-1.2-0.4-1.2-1.1V3.7
		c0-0.7,0.4-1.1,1.2-1.1H191.1z"/>
	<path style="fill:#19255B;" d="M213.3,2.6c0.9,0,1.4,0.3,1.7,1.1l10.3,27.7l10.2-27.7c0.3-0.7,0.7-1.1,1.7-1.1h11.6
		c0.8,0,1.2,0.4,1.2,1.1v35.2c0,0.7-0.4,1.1-1.2,1.1h-6.3c-0.7,0-1.2-0.4-1.2-1.1V9.8L230.2,39c-0.2,0.7-0.7,1.1-1.7,1.1h-7.1
		c-1,0-1.4-0.3-1.7-1.1L208.7,9.7v29.2c0,0.7-0.4,1.1-1.2,1.1h-5.7c-0.8,0-1.2-0.4-1.2-1.1V3.7c0-0.7,0.4-1.1,1.2-1.1H213.3z"/>
	<path style="fill:#19255B;" d="M271,2.6c0.9,0,1.4,0.3,1.7,1.1l10.3,27.7l10.2-27.7c0.3-0.7,0.7-1.1,1.7-1.1h11.6
		c0.8,0,1.2,0.4,1.2,1.1v35.2c0,0.7-0.4,1.1-1.2,1.1h-6.3c-0.7,0-1.2-0.4-1.2-1.1V9.8L287.9,39c-0.2,0.7-0.7,1.1-1.7,1.1h-7.1
		c-1,0-1.4-0.3-1.7-1.1L266.4,9.7v29.2c0,0.7-0.4,1.1-1.2,1.1h-5.7c-0.8,0-1.2-0.4-1.2-1.1V3.7c0-0.7,0.4-1.1,1.2-1.1H271z"/>
	<path style="fill:#19255B;" d="M351.2,2.6c0.7,0,1.2,0.4,1.2,1.1v4.8c0,0.7-0.4,1.1-1.2,1.1h-26.5v8.1H347c0.7,0,1.2,0.4,1.2,1.1
		v4.6c0,0.7-0.5,1.1-1.2,1.1h-22.3V33h26.5c0.7,0,1.2,0.4,1.2,1.1v4.8c0,0.7-0.4,1.1-1.2,1.1h-34c-0.8,0-1.2-0.4-1.2-1.1V3.7
		c0-0.7,0.4-1.1,1.2-1.1H351.2z"/>
</g>
</svg>
