<?xml version="1.0" encoding="utf-8"?>
<!-- Generator: Adobe Illustrator 23.0.1, SVG Export Plug-In . SVG Version: 6.00 Build 0)  -->
<svg version="1.1" id="SISTEMI_IDRAULICI_1_" xmlns="http://www.w3.org/2000/svg" xmlns:xlink="http://www.w3.org/1999/xlink"
	 x="0px" y="0px" width="96px" height="96px" viewBox="0 0 96 96" style="enable-background:new 0 0 96 96;" xml:space="preserve">
<path id="SISTEMI_IDRAULICI" style="fill:#1B265B;" d="M68.2,51.6H50.8H34.1c-2,0-3.6-1.6-3.6-3.6s1.6-3.6,3.6-3.6h16.7h17.4
	c9.4,0,17.1-7.6,17.1-17.1c0-9.4-7.6-17.1-17.1-17.1H10.7v13.5h40.8h16.7c2,0,3.6,1.6,3.6,3.6s-1.6,3.6-3.6,3.6H51.5H34.1
	C24.6,30.9,17,38.6,17,48s7.6,17.1,17.1,17.1h17.4h16.7c2,0,3.6,1.6,3.6,3.6s-1.6,3.6-3.6,3.6H51.5H10.7v13.5h57.5
	c9.4,0,17.1-7.6,17.1-17.1C85.3,59.2,77.6,51.6,68.2,51.6"/>
</svg>
