<?xml version="1.0" encoding="utf-8"?>
<!-- Generator: Adobe Illustrator 23.0.1, SVG Export Plug-In . SVG Version: 6.00 Build 0)  -->
<svg version="1.1" id="Layer_1" xmlns="http://www.w3.org/2000/svg" xmlns:xlink="http://www.w3.org/1999/xlink" x="0px" y="0px"
	 width="21px" height="23px" viewBox="0 0 21 23" style="enable-background:new 0 0 21 23;" xml:space="preserve">
<style type="text/css">
	.st0{fill-rule:evenodd;clip-rule:evenodd;enable-background:new    ;}
</style>
<path id="lens_copy" class="st0" d="M20.6,20.3l-4.9-5.2c1.2-1.7,1.8-3.7,1.8-5.7c0-5.2-3.9-9.4-8.7-9.4S0,4.2,0,9.4
	s3.7,7.8,6.3,8.4c1.8,0.4,3.9,0.6,7.1-0.7l5.1,5.4c0.5,0.6,1.4,0.6,2,0.1c0,0,0.1-0.1,0.1-0.1C21.1,21.9,21.1,20.9,20.6,20.3z
	 M15,9.4c-0.2,3.5-3.2,6.1-6.7,5.8S2.2,12,2.5,8.5c0.2-3.3,3-5.8,6.3-5.8C12.3,2.8,15.1,5.8,15,9.4z"/>
</svg>
