<?xml version="1.0" encoding="utf-8"?>
<!-- Generator: Adobe Illustrator 23.0.1, SVG Export Plug-In . SVG Version: 6.00 Build 0)  -->
<svg version="1.1" id="RUBINETTERIA_1_" xmlns="http://www.w3.org/2000/svg" xmlns:xlink="http://www.w3.org/1999/xlink" x="0px"
	 y="0px" width="96px" height="96px" viewBox="0 0 96 96" style="enable-background:new 0 0 96 96;" xml:space="preserve">
<path style="fill:#1B265B;" d="M85.7,73.4L85.7,73.4c-0.1-0.1-0.1-0.1-0.1-0.2L79,63l-6.6,10.2c0,0,0,0,0,0.1l-0.1,0.1l0,0
	c-0.8,1.3-1.3,2.7-1.3,4.3c0,4.4,3.6,8,8,8s8-3.6,8-8C87,76.1,86.5,74.6,85.7,73.4L85.7,73.4z"/>
<path style="fill:#1B265B;" d="M93.8,57.9c-1.6-7.7-8.5-13.6-16.8-13.6l0,0H36.1H19.4c-2,0-3.6-1.6-3.6-3.6s1.6-3.6,3.6-3.6h16.8
	h17.5c9.5,0,17.1-7.7,17.1-17.1l0,0v-9.8H57.2V20l0,0c0,2-1.6,3.6-3.6,3.6H36.8H19.4c-9.5,0-17.1,7.7-17.1,17.1
	c0,9.5,7.7,17.1,17.1,17.1h40.9H77L93.8,57.9L93.8,57.9z"/>
</svg>
