<?xml version="1.0" encoding="utf-8"?>
<!-- Generator: Adobe Illustrator 23.0.1, SVG Export Plug-In . SVG Version: 6.00 Build 0)  -->
<svg version="1.1" id="centrale-termica" xmlns="http://www.w3.org/2000/svg" xmlns:xlink="http://www.w3.org/1999/xlink" x="0px"
	 y="0px" width="96px" height="96px" viewBox="0 0 96 96" style="enable-background:new 0 0 96 96;" xml:space="preserve">
<path style="fill:#1B265B;" d="M67.3,48c0-0.8,0.6-1.4,1.4-1.4s1.4,0.6,1.4,1.4c0,0.8-0.6,1.4-1.4,1.4S67.3,48.8,67.3,48 M62,54.9
	v30.9h13.3V54.9c1.8-1.7,2.9-4.2,2.9-6.9s-1.1-5.1-2.9-6.9V16.9c0-3.7-3-6.7-6.7-6.7s-6.7,3-6.7,6.7v24.3c-1.8,1.7-2.9,4.2-2.9,6.9
	S60.2,53.1,62,54.9"/>
<path style="fill:#1B265B;" d="M48,31.5c0.8,0,1.4,0.6,1.4,1.4c0,0.8-0.6,1.4-1.4,1.4c-0.8,0-1.4-0.6-1.4-1.4S47.2,31.5,48,31.5
	 M41.3,39.8v46h13.3v-46c1.8-1.7,2.9-4.2,2.9-6.9s-1.1-5.1-2.9-6.9v-9.2c0-3.7-3-6.7-6.7-6.7s-6.7,3-6.7,6.7V26
	c-1.8,1.7-2.9,4.2-2.9,6.9C38.4,35.6,39.5,38,41.3,39.8"/>
<path style="fill:#1B265B;" d="M25.9,62.8c0-0.8,0.6-1.4,1.4-1.4s1.4,0.6,1.4,1.4c0,0.8-0.6,1.4-1.4,1.4S25.9,63.5,25.9,62.8
	 M20.6,69.6v16.2H34V69.6c1.8-1.7,2.9-4.2,2.9-6.9c0-2.7-1.1-5.1-2.9-6.9V16.9c0-3.7-3-6.7-6.7-6.7s-6.7,3-6.7,6.7V56
	c-1.8,1.7-2.9,4.2-2.9,6.9C17.7,65.5,18.8,67.9,20.6,69.6"/>
</svg>
