<?xml version="1.0" encoding="utf-8"?>
<!-- Generator: Adobe Illustrator 23.0.1, SVG Export Plug-In . SVG Version: 6.00 Build 0)  -->
<svg version="1.1" id="Layer_1" xmlns="http://www.w3.org/2000/svg" xmlns:xlink="http://www.w3.org/1999/xlink" x="0px" y="0px"
	 width="96px" height="96px" viewBox="0 0 96 96" style="enable-background:new 0 0 96 96;" xml:space="preserve">
<path id="TIEMME_LAB" style="fill:#DB181A;" d="M48,51.9c-2,0-3.6-1.6-3.6-3.6s1.6-3.6,3.6-3.6s3.6,1.6,3.6,3.6S50,51.9,48,51.9
	 M79.1,57.5L79.1,57.5L79.1,57.5c-0.2-0.1-0.4-0.3-0.6-0.4L65,49.8c0-0.5,0.1-1,0.1-1.5s0-1-0.1-1.5l13.1-7.1
	c0.1-0.1,0.2-0.1,0.4-0.2c0.1-0.1,0.2-0.1,0.4-0.2H79l0,0c2.9-1.9,4-5.8,2.3-8.9c-1.8-3.3-5.9-4.5-9.1-2.7L58.7,35
	c-1.2-0.9-2.4-1.7-3.8-2.3V17c0-3.7-3-6.8-6.8-6.8c-3.7,0-6.8,3-6.8,6.8v15.6c-1.4,0.6-2.7,1.4-3.8,2.3L24,27.6
	c-3.3-1.8-7.4-0.6-9.1,2.7c-1.7,3.1-0.7,7,2.3,8.9l0,0h0.1c0.1,0.1,0.2,0.1,0.4,0.2c0.1,0.1,0.2,0.1,0.4,0.2L31,46.8
	c0,0.5-0.1,1-0.1,1.5s0,1,0.1,1.5l-13.5,7.3c-0.2,0.1-0.4,0.2-0.6,0.4l0,0c-2.8,1.9-3.8,5.7-2.1,8.8c1.8,3.3,5.9,4.5,9.1,2.7
	l13.5-7.3c1.2,0.9,2.4,1.7,3.8,2.3v14.8l0,0c0,0.1,0,0.2,0,0.3c0,3.7,3,6.8,6.8,6.8c3.7,0,6.8-3,6.8-6.8c0-0.1,0-0.2,0-0.3l0,0V64
	c1.4-0.6,2.7-1.4,3.8-2.3L72.1,69c3.3,1.8,7.4,0.6,9.1-2.7C82.9,63.2,81.9,59.4,79.1,57.5"/>
</svg>
