<?xml version="1.0" encoding="utf-8"?>
<!-- Generator: Adobe Illustrator 23.0.1, SVG Export Plug-In . SVG Version: 6.00 Build 0)  -->
<svg version="1.1" id="COMPONENTI_IDRAULICI_1_" xmlns="http://www.w3.org/2000/svg" xmlns:xlink="http://www.w3.org/1999/xlink"
	 x="0px" y="0px" width="96px" height="96px" viewBox="0 0 96 96" style="enable-background:new 0 0 96 96;" xml:space="preserve">
<path id="COMPONENTI_IDRAULICI" style="fill:#1B265B;" d="M48,72.6c-7.5,0-13.5-6.1-13.5-13.5c0-2.6,0.8-5.1,2.1-7.2l0,0l0.2-0.3
	l0.1-0.1l11.2-17l11.2,17l0,0l0,0c1.4,2.2,2.3,4.7,2.3,7.5C61.5,66.5,55.5,72.6,48,72.6 M70.4,44.7L70.4,44.7l-0.2-0.4
	c0-0.1-0.1-0.1-0.1-0.2L48,10.3L25.9,44.1c0,0.1-0.1,0.1-0.1,0.2l-0.3,0.4l0,0c-2.7,4.2-4.2,9.1-4.2,14.4
	c0,14.7,11.9,26.7,26.7,26.7s26.7-11.9,26.7-26.7C74.7,53.8,73.1,48.8,70.4,44.7"/>
</svg>
