<?xml version="1.0" encoding="utf-8"?>
<!-- Generator: Adobe Illustrator 23.0.1, SVG Export Plug-In . SVG Version: 6.00 Build 0)  -->
<svg version="1.1" id="Layer_1" xmlns="http://www.w3.org/2000/svg" xmlns:xlink="http://www.w3.org/1999/xlink" x="0px" y="0px"
	 width="20px" height="20px" viewBox="0 0 20 20" style="enable-background:new 0 0 20 20;" xml:space="preserve">
<style type="text/css">
	.st0{fill-rule:evenodd;clip-rule:evenodd;fill:#151514;}
</style>
<path class="st0" d="M20,10c0,5.5-4.5,10-10,10C4.5,20,0,15.5,0,10C0,4.5,4.5,0,10,0C15.5,0,20,4.5,20,10 M10,12.3
	c0.5,0.5,1.3,0.8,2.1,0.8c0.8,0,1.5-0.3,2.1-0.8c0.5-0.5,0.8-1.2,0.8-2V7.5h-1.7v2.8c0,0.3-0.1,0.6-0.4,0.8
	c-0.1,0.1-0.3,0.2-0.4,0.3c-0.2,0.1-0.3,0.1-0.5,0.1c-0.2,0-0.3,0-0.5-0.1c-0.1-0.1-0.3-0.2-0.4-0.3c-0.2-0.2-0.4-0.5-0.4-0.8V7.6
	H9.2v2.8c0,0.3-0.1,0.6-0.4,0.9c-0.2,0.2-0.5,0.4-0.8,0.4c-0.3,0-0.7-0.1-0.9-0.3c-0.2-0.2-0.4-0.5-0.3-0.8V7.5H5v2.8
	c0,0.7,0.3,1.5,0.8,2c0.6,0.5,1.3,0.8,2.1,0.8C8.7,13.2,9.5,12.9,10,12.3L10,12.3L10,12.3z"/>
</svg>
