<?xml version="1.0" encoding="utf-8"?>
<!-- Generator: Adobe Illustrator 23.0.1, SVG Export Plug-In . SVG Version: 6.00 Build 0)  -->
<svg version="1.1" id="Layer_1" xmlns="http://www.w3.org/2000/svg" xmlns:xlink="http://www.w3.org/1999/xlink" x="0px" y="0px"
	 width="23px" height="17px" viewBox="0 0 23 17" style="enable-background:new 0 0 23 17;" xml:space="preserve">
<style type="text/css">
	.st0{fill-rule:evenodd;clip-rule:evenodd;fill:#151514;}
</style>
<path id="youtube" class="st0" d="M11.5,0.5L11.5,0.5c0,0-4.8,0-8,0.2c-0.9,0-1.7,0.4-2.3,1C0.7,2.3,0.4,3.1,0.3,3.9
	C0.2,5.2,0.1,6.4,0.1,7.6v1.7c0,1.2,0.1,2.5,0.2,3.7c0.1,0.8,0.4,1.6,0.9,2.3c0.7,0.6,1.6,1,2.5,1c1.8,0.2,7.8,0.2,7.8,0.2l0,0
	c0,0,4.8,0,8-0.2c0.9,0,1.7-0.4,2.3-1c0.5-0.7,0.8-1.4,0.9-2.3c0.1-1.2,0.2-2.5,0.2-3.7V7.6c0-1.2-0.1-2.5-0.2-3.7
	c-0.1-0.8-0.4-1.6-0.9-2.3c-0.6-0.6-1.4-1-2.3-1C16.3,0.5,11.5,0.5,11.5,0.5 M9.1,11.5l6.2-3.2L9.1,5.1V11.5L9.1,11.5z"/>
</svg>
