<?xml version="1.0" standalone="no"?>
<!DOCTYPE svg PUBLIC "-//W3C//DTD SVG 20010904//EN"
 "http://www.w3.org/TR/2001/REC-SVG-20010904/DTD/svg10.dtd">
<svg version="1.0" xmlns="http://www.w3.org/2000/svg"
 width="1024.000000pt" height="1024.000000pt" viewBox="0 0 1024.000000 1024.000000"
 preserveAspectRatio="xMidYMid meet">
<metadata>
Created by potrace 1.11, written by Peter Selinger 2001-2013
</metadata>
<g transform="translate(0.000000,1024.000000) scale(0.100000,-0.100000)"
fill="#000000" stroke="none">
<path d="M385 7811 c-3 -6 -5 -512 -4 -1125 l2 -1116 1306 0 c1553 -1 1607 -1
1646 -10 17 -4 55 -13 85 -20 98 -22 214 -86 285 -157 71 -71 133 -182 156
-283 10 -43 13 -331 15 -1280 1 -674 5 -1254 8 -1290 21 -247 137 -506 308
-685 235 -247 537 -357 968 -350 96 1 185 5 196 8 12 3 39 8 60 11 74 11 99
18 194 48 243 77 430 215 568 420 72 106 161 311 177 408 3 19 8 46 10 60 3
14 8 41 10 60 3 19 6 584 6 1255 0 738 4 1243 10 1279 29 175 110 304 254 402
85 58 225 107 335 118 25 2 684 5 1466 5 l1421 1 0 1125 0 1126 -1636 -4
c-900 -2 -1652 -6 -1671 -10 -268 -55 -338 -78 -526 -173 -429 -216 -699 -625
-775 -1174 -9 -62 -12 -582 -14 -1943 -2 -1484 -5 -1863 -15 -1882 -16 -30
-58 -48 -109 -47 -49 1 -87 24 -97 60 -4 15 -8 860 -9 1877 -2 1018 -5 1859
-8 1871 -3 12 -8 45 -12 74 -4 29 -9 62 -11 74 -2 12 -6 32 -9 46 -42 217
-116 410 -223 575 -128 200 -336 382 -568 498 -90 45 -256 101 -359 121 -44 9
-93 19 -110 23 -49 11 -3323 15 -3330 4z"/>
</g>
</svg>
